<?xml version="1.0" encoding="UTF-8" standalone="no"?>
<!DOCTYPE svg PUBLIC "-//W3C//DTD SVG 1.1//EN"
 "http://www.w3.org/Graphics/SVG/1.1/DTD/svg11.dtd">
<!-- Generated by graphviz version 2.43.0 (0)
 -->
<!-- Title: ros2_system Pages: 1 -->
<svg width="1873pt" height="504pt"
 viewBox="0.00 0.00 1873.15 503.64" xmlns="http://www.w3.org/2000/svg" xmlns:xlink="http://www.w3.org/1999/xlink">
<g id="graph0" class="graph" transform="scale(1 1) rotate(0) translate(4 499.64)">
<title>ros2_system</title>
<polygon fill="white" stroke="transparent" points="-4,4 -4,-499.64 1869.15,-499.64 1869.15,4 -4,4"/>
<!-- gazebo -->
<g id="node1" class="node">
<title>gazebo</title>
<polygon fill="#d9d9d9" stroke="#666666" points="84,-219.64 0,-219.64 0,-183.64 84,-183.64 84,-219.64"/>
<text text-anchor="middle" x="42" y="-204.44" font-family="Helvetica,sans-Serif" font-size="9.00">Gazebo Sim</text>
<text text-anchor="middle" x="42" y="-194.44" font-family="Helvetica,sans-Serif" font-size="9.00">(DART physics)</text>
</g>
<!-- gz_bridge -->
<g id="node2" class="node">
<title>gz_bridge</title>
<ellipse fill="#aec6e8" stroke="#4a7fbf" cx="224.61" cy="-201.64" rx="45.72" ry="18"/>
<text text-anchor="middle" x="224.61" y="-199.44" font-family="Helvetica,sans-Serif" font-size="9.00">ros_gz_bridge</text>
</g>
<!-- gazebo&#45;&gt;gz_bridge -->
<g id="edge1" class="edge">
<title>gazebo&#45;&gt;gz_bridge</title>
<path fill="none" stroke="#7f7f7f" stroke-dasharray="5,2" d="M84.33,-199.43C103.66,-198.84 124.05,-199.09 168.58,-200.19"/>
<polygon fill="#7f7f7f" stroke="#7f7f7f" points="168.69,-203.7 178.78,-200.45 168.87,-196.7 168.69,-203.7"/>
<text text-anchor="middle" x="131.5" y="-204.24" font-family="Helvetica,sans-Serif" font-size="8.00">gz topics</text>
</g>
<!-- t_points -->
<g id="node3" class="node">
<title>t_points</title>
<polygon fill="#fff9c4" stroke="#c8b400" points="476.22,-191.64 329.22,-191.64 329.22,-155.64 476.22,-155.64 476.22,-191.64"/>
<text text-anchor="middle" x="402.72" y="-176.44" font-family="Helvetica,sans-Serif" font-size="9.00">/camera/rgbd_camera/points</text>
<text text-anchor="middle" x="402.72" y="-166.44" font-family="Helvetica,sans-Serif" font-size="9.00">(PointCloud2)</text>
</g>
<!-- gz_bridge&#45;&gt;t_points -->
<g id="edge2" class="edge">
<title>gz_bridge&#45;&gt;t_points</title>
<path fill="none" stroke="black" d="M265.61,-193.61C279.66,-191.08 294.37,-188.79 319.16,-185.26"/>
<polygon fill="black" stroke="black" points="319.77,-188.71 329.18,-183.84 318.79,-181.78 319.77,-188.71"/>
</g>
<!-- t_poses -->
<g id="node4" class="node">
<title>t_poses</title>
<polygon fill="#fff9c4" stroke="#c8b400" points="441.22,-379.64 364.22,-379.64 364.22,-343.64 441.22,-343.64 441.22,-379.64"/>
<text text-anchor="middle" x="402.72" y="-364.44" font-family="Helvetica,sans-Serif" font-size="9.00">/model_poses</text>
<text text-anchor="middle" x="402.72" y="-354.44" font-family="Helvetica,sans-Serif" font-size="9.00">(TFMessage)</text>
</g>
<!-- gz_bridge&#45;&gt;t_poses -->
<g id="edge3" class="edge">
<title>gz_bridge&#45;&gt;t_poses</title>
<path fill="none" stroke="black" d="M233.25,-219.47C262.69,-279.56 273.57,-291 360.29,-338.6"/>
<polygon fill="black" stroke="black" points="358.76,-341.75 369.21,-343.48 362.12,-335.61 358.76,-341.75"/>
</g>
<!-- t_jstates -->
<g id="node5" class="node">
<title>t_jstates</title>
<polygon fill="#fff9c4" stroke="#c8b400" points="438.22,-294.64 367.22,-294.64 367.22,-258.64 438.22,-258.64 438.22,-294.64"/>
<text text-anchor="middle" x="402.72" y="-274.44" font-family="Helvetica,sans-Serif" font-size="9.00">/joint_states</text>
</g>
<!-- gz_bridge&#45;&gt;t_jstates -->
<g id="edge4" class="edge">
<title>gz_bridge&#45;&gt;t_jstates</title>
<path fill="none" stroke="black" d="M244.83,-217.82C272.76,-239.35 288.85,-245.91 357.05,-264.42"/>
<polygon fill="black" stroke="black" points="356.46,-267.89 367.03,-267.12 358.29,-261.13 356.46,-267.89"/>
</g>
<!-- icgnet_node -->
<g id="node6" class="node">
<title>icgnet_node</title>
<ellipse fill="#aec6e8" stroke="#4a7fbf" cx="691.22" cy="-153.64" rx="74.49" ry="19.6"/>
<text text-anchor="middle" x="691.22" y="-156.44" font-family="Helvetica,sans-Serif" font-size="9.00">icgnet_grasp_node</text>
<text text-anchor="middle" x="691.22" y="-146.44" font-family="Helvetica,sans-Serif" font-size="9.00">(ICGNetGraspNode)</text>
</g>
<!-- t_points&#45;&gt;icgnet_node -->
<g id="edge5" class="edge">
<title>t_points&#45;&gt;icgnet_node</title>
<path fill="none" stroke="black" d="M476.29,-169.09C505.91,-167.15 539.59,-164.73 609.27,-159.64"/>
<polygon fill="black" stroke="black" points="609.62,-163.13 619.34,-158.91 609.11,-156.15 609.62,-163.13"/>
<text text-anchor="middle" x="525.22" y="-159.24" font-family="Helvetica,sans-Serif" font-size="8.00">subscribe</text>
</g>
<!-- executor_node -->
<g id="node10" class="node">
<title>executor_node</title>
<ellipse fill="#aec6e8" stroke="#4a7fbf" cx="1242.83" cy="-244.64" rx="80.72" ry="19.6"/>
<text text-anchor="middle" x="1242.83" y="-247.44" font-family="Helvetica,sans-Serif" font-size="9.00">grasp_executor_node</text>
<text text-anchor="middle" x="1242.83" y="-237.44" font-family="Helvetica,sans-Serif" font-size="9.00">(GraspExecutorNode)</text>
</g>
<!-- t_poses&#45;&gt;executor_node -->
<g id="edge11" class="edge">
<title>t_poses&#45;&gt;executor_node</title>
<path fill="none" stroke="black" d="M441.39,-363.64C660.71,-374.71 695.65,-369.43 1173.65,-260.43"/>
<polygon fill="black" stroke="black" points="1174.61,-263.8 1183.59,-258.17 1173.06,-256.98 1174.61,-263.8"/>
<text text-anchor="middle" x="867.72" y="-367.24" font-family="Helvetica,sans-Serif" font-size="8.00">pose feedback</text>
</g>
<!-- t_jstates&#45;&gt;executor_node -->
<g id="edge12" class="edge">
<title>t_jstates&#45;&gt;executor_node</title>
<path fill="none" stroke="black" d="M438.26,-282.21C654.05,-315.76 688.75,-314.54 1160.81,-255.01"/>
<polygon fill="black" stroke="black" points="1161.49,-258.45 1170.97,-253.73 1160.61,-251.51 1161.49,-258.45"/>
<text text-anchor="middle" x="867.72" y="-302.24" font-family="Helvetica,sans-Serif" font-size="8.00">finger gap</text>
<text text-anchor="middle" x="867.72" y="-293.24" font-family="Helvetica,sans-Serif" font-size="8.00">check</text>
</g>
<!-- t_grasps_rich -->
<g id="node8" class="node">
<title>t_grasps_rich</title>
<polygon fill="#fff9c4" stroke="#c8b400" points="1041.72,-163.64 938.72,-163.64 938.72,-127.64 1041.72,-127.64 1041.72,-163.64"/>
<text text-anchor="middle" x="990.22" y="-148.44" font-family="Helvetica,sans-Serif" font-size="9.00">/icgnet/grasps_rich</text>
<text text-anchor="middle" x="990.22" y="-138.44" font-family="Helvetica,sans-Serif" font-size="9.00">(GraspArray)</text>
</g>
<!-- icgnet_node&#45;&gt;t_grasps_rich -->
<g id="edge7" class="edge">
<title>icgnet_node&#45;&gt;t_grasps_rich</title>
<path fill="none" stroke="black" d="M749.99,-141.36C790.33,-134.76 825.22,-135.56 928.19,-141.8"/>
<polygon fill="black" stroke="black" points="928.18,-145.3 938.37,-142.42 928.6,-138.32 928.18,-145.3"/>
</g>
<!-- t_collision -->
<g id="node9" class="node">
<title>t_collision</title>
<polygon fill="#fff9c4" stroke="#c8b400" points="1034.72,-91.64 945.72,-91.64 945.72,-55.64 1034.72,-55.64 1034.72,-91.64"/>
<text text-anchor="middle" x="990.22" y="-76.44" font-family="Helvetica,sans-Serif" font-size="9.00">/collision_object</text>
<text text-anchor="middle" x="990.22" y="-66.44" font-family="Helvetica,sans-Serif" font-size="9.00">(CollisionObject)</text>
</g>
<!-- icgnet_node&#45;&gt;t_collision -->
<g id="edge8" class="edge">
<title>icgnet_node&#45;&gt;t_collision</title>
<path fill="none" stroke="black" d="M720.82,-135.37C777.12,-101.49 801.2,-95.7 935.15,-80"/>
<polygon fill="black" stroke="black" points="935.89,-83.44 945.42,-78.8 935.08,-76.49 935.89,-83.44"/>
</g>
<!-- svc_infer -->
<g id="node7" class="node">
<title>svc_infer</title>
<polygon fill="#ffe0b2" stroke="#e65100" stroke-dasharray="5,2" points="1053.22,-235.64 927.22,-235.64 927.22,-199.64 1053.22,-199.64 1053.22,-235.64"/>
<text text-anchor="middle" x="990.22" y="-220.44" font-family="Helvetica,sans-Serif" font-size="9.00">/icgnet/compute_grasps</text>
<text text-anchor="middle" x="990.22" y="-210.44" font-family="Helvetica,sans-Serif" font-size="9.00">(std_srvs/Trigger)</text>
</g>
<!-- svc_infer&#45;&gt;icgnet_node -->
<g id="edge6" class="edge">
<title>svc_infer&#45;&gt;icgnet_node</title>
<path fill="none" stroke="#e65100" stroke-dasharray="5,2" d="M737.94,-169.1C780.31,-182.36 811.6,-188.5 916.74,-205.71"/>
<polygon fill="#e65100" stroke="#e65100" points="916.37,-209.2 926.81,-207.35 917.5,-202.29 916.37,-209.2"/>
<text text-anchor="middle" x="867.72" y="-217.24" font-family="Helvetica,sans-Serif" font-size="8.00">call</text>
</g>
<!-- t_grasps_rich&#45;&gt;executor_node -->
<g id="edge9" class="edge">
<title>t_grasps_rich&#45;&gt;executor_node</title>
<path fill="none" stroke="black" d="M1042.04,-160.42C1142.24,-189.14 1169.03,-198.36 1205.84,-220.76"/>
<polygon fill="black" stroke="black" points="1204.06,-223.77 1214.4,-226.08 1207.75,-217.83 1204.06,-223.77"/>
</g>
<!-- move_group -->
<g id="node11" class="node">
<title>move_group</title>
<ellipse fill="#c8e6c9" stroke="#2e7d32" cx="1242.83" cy="-133.64" rx="51.74" ry="19.6"/>
<text text-anchor="middle" x="1242.83" y="-136.44" font-family="Helvetica,sans-Serif" font-size="9.00">move_group</text>
<text text-anchor="middle" x="1242.83" y="-126.44" font-family="Helvetica,sans-Serif" font-size="9.00">(MoveIt2)</text>
</g>
<!-- t_collision&#45;&gt;move_group -->
<g id="edge10" class="edge">
<title>t_collision&#45;&gt;move_group</title>
<path fill="none" stroke="black" d="M1035,-73.63C1138.68,-73.9 1161.17,-77.63 1209.6,-110.25"/>
<polygon fill="black" stroke="black" points="1207.72,-113.2 1217.94,-115.97 1211.67,-107.43 1207.72,-113.2"/>
<text text-anchor="middle" x="1107.72" y="-103.24" font-family="Helvetica,sans-Serif" font-size="8.00">planning</text>
<text text-anchor="middle" x="1107.72" y="-94.24" font-family="Helvetica,sans-Serif" font-size="8.00">scene (ADD)</text>
</g>
<!-- executor_node&#45;&gt;svc_infer -->
<g id="edge14" class="edge">
<title>executor_node&#45;&gt;svc_infer</title>
<path fill="none" stroke="#e65100" stroke-dasharray="5,2" d="M1053.23,-227.65C1100.38,-235.08 1129.53,-239.4 1152.3,-241.86"/>
<polygon fill="#e65100" stroke="#e65100" points="1152.05,-245.35 1162.35,-242.86 1152.75,-238.39 1152.05,-245.35"/>
<text text-anchor="middle" x="1107.72" y="-238.24" font-family="Helvetica,sans-Serif" font-size="8.00">trigger</text>
<text text-anchor="middle" x="1107.72" y="-229.24" font-family="Helvetica,sans-Serif" font-size="8.00">inference</text>
</g>
<!-- executor_node&#45;&gt;move_group -->
<g id="edge15" class="edge">
<title>executor_node&#45;&gt;move_group</title>
<path fill="none" stroke="black" d="M1243.25,-133.66C1258.03,-135.09 1260.29,-212.61 1250.01,-237.23"/>
<polygon fill="black" stroke="black" points="1247.41,-234.88 1243.25,-244.62 1252.58,-239.6 1247.41,-234.88"/>
</g>
<!-- move_group&#45;&gt;executor_node -->
<g id="edge16" class="edge">
<title>move_group&#45;&gt;executor_node</title>
<path fill="none" stroke="black" stroke-dasharray="5,2" d="M1232.25,-153.23C1228.96,-170.33 1228.45,-195.38 1230.72,-214.94"/>
<polygon fill="black" stroke="black" points="1227.27,-215.51 1232.21,-224.88 1234.19,-214.47 1227.27,-215.51"/>
</g>
<!-- arm_ctrl -->
<g id="node13" class="node">
<title>arm_ctrl</title>
<ellipse fill="#aec6e8" stroke="#4a7fbf" cx="1551.29" cy="-76.64" rx="81.13" ry="19.6"/>
<text text-anchor="middle" x="1551.29" y="-79.44" font-family="Helvetica,sans-Serif" font-size="9.00">panda_arm_controller</text>
<text text-anchor="middle" x="1551.29" y="-69.44" font-family="Helvetica,sans-Serif" font-size="9.00">(JTC, position)</text>
</g>
<!-- move_group&#45;&gt;arm_ctrl -->
<g id="edge17" class="edge">
<title>move_group&#45;&gt;arm_ctrl</title>
<path fill="none" stroke="black" d="M1288.67,-124.42C1392.24,-103.6 1435.13,-95.11 1472.34,-88.79"/>
<polygon fill="black" stroke="black" points="1472.93,-92.24 1482.22,-87.14 1471.78,-85.34 1472.93,-92.24"/>
<text text-anchor="middle" x="1394.94" y="-92.24" font-family="Helvetica,sans-Serif" font-size="8.00">FollowJointTrajectory</text>
<text text-anchor="middle" x="1394.94" y="-83.24" font-family="Helvetica,sans-Serif" font-size="8.00">(action)</text>
</g>
<!-- hand_ctrl -->
<g id="node14" class="node">
<title>hand_ctrl</title>
<ellipse fill="#aec6e8" stroke="#4a7fbf" cx="1551.29" cy="-152.64" rx="84.71" ry="19.6"/>
<text text-anchor="middle" x="1551.29" y="-155.44" font-family="Helvetica,sans-Serif" font-size="9.00">panda_hand_controller</text>
<text text-anchor="middle" x="1551.29" y="-145.44" font-family="Helvetica,sans-Serif" font-size="9.00">(JTC, effort+PD)</text>
</g>
<!-- move_group&#45;&gt;hand_ctrl -->
<g id="edge18" class="edge">
<title>move_group&#45;&gt;hand_ctrl</title>
<path fill="none" stroke="black" d="M1294.54,-133.55C1396.72,-133.42 1438.21,-133.97 1475.46,-138.68"/>
<polygon fill="black" stroke="black" points="1475,-142.15 1485.38,-140.04 1475.95,-135.21 1475,-142.15"/>
<text text-anchor="middle" x="1394.94" y="-159.24" font-family="Helvetica,sans-Serif" font-size="8.00">FollowJointTrajectory</text>
<text text-anchor="middle" x="1394.94" y="-150.24" font-family="Helvetica,sans-Serif" font-size="8.00">(action)</text>
</g>
<!-- svc_exec -->
<g id="node12" class="node">
<title>svc_exec</title>
<polygon fill="#c8e6c9" stroke="#2e7d32" points="691.22,-495.64 574.22,-457.64 691.22,-419.64 808.22,-457.64 691.22,-495.64"/>
<text text-anchor="middle" x="691.22" y="-465.44" font-family="Helvetica,sans-Serif" font-size="9.00">/icgnet/execute_grasp</text>
<text text-anchor="middle" x="691.22" y="-455.44" font-family="Helvetica,sans-Serif" font-size="9.00">(ExecuteGrasp srv)</text>
<text text-anchor="middle" x="691.22" y="-445.44" font-family="Helvetica,sans-Serif" font-size="9.00">← operator command</text>
</g>
<!-- svc_exec&#45;&gt;executor_node -->
<g id="edge13" class="edge">
<title>svc_exec&#45;&gt;executor_node</title>
<path fill="none" stroke="#2e7d32" stroke-dasharray="5,2" d="M808.03,-457.48C1009.82,-454.84 1044.1,-431.83 1214.83,-271.06"/>
<polygon fill="#2e7d32" stroke="#2e7d32" points="1217.4,-273.45 1222.27,-264.05 1212.59,-268.36 1217.4,-273.45"/>
<text text-anchor="middle" x="990.22" y="-460.24" font-family="Helvetica,sans-Serif" font-size="8.00">goal class</text>
</g>
<!-- panda -->
<g id="node15" class="node">
<title>panda</title>
<polygon fill="#d9d9d9" stroke="#666666" points="1865.15,-94.64 1747.15,-94.64 1747.15,-58.64 1865.15,-58.64 1865.15,-94.64"/>
<text text-anchor="middle" x="1806.15" y="-79.44" font-family="Helvetica,sans-Serif" font-size="9.00">Franka Panda</text>
<text text-anchor="middle" x="1806.15" y="-69.44" font-family="Helvetica,sans-Serif" font-size="9.00">(7&#45;DoF arm + gripper)</text>
</g>
<!-- arm_ctrl&#45;&gt;panda -->
<g id="edge19" class="edge">
<title>arm_ctrl&#45;&gt;panda</title>
<path fill="none" stroke="black" d="M1631.32,-72.73C1684.52,-70.26 1712.66,-69.47 1736.86,-70.36"/>
<polygon fill="black" stroke="black" points="1736.9,-73.87 1747.05,-70.85 1737.23,-66.88 1736.9,-73.87"/>
<text text-anchor="middle" x="1691.65" y="-79.24" font-family="Helvetica,sans-Serif" font-size="8.00">position cmd</text>
</g>
<!-- hand_ctrl&#45;&gt;panda -->
<g id="edge20" class="edge">
<title>hand_ctrl&#45;&gt;panda</title>
<path fill="none" stroke="black" d="M1609.27,-138.12C1690.21,-117.76 1721.43,-109.36 1751.92,-98.28"/>
<polygon fill="black" stroke="black" points="1753.27,-101.52 1761.42,-94.75 1750.82,-94.96 1753.27,-101.52"/>
<text text-anchor="middle" x="1691.65" y="-142.24" font-family="Helvetica,sans-Serif" font-size="8.00">effort cmd</text>
</g>
<!-- panda&#45;&gt;gz_bridge -->
<g id="edge21" class="edge">
<title>panda&#45;&gt;gz_bridge</title>
<path fill="none" stroke="#7f7f7f" stroke-dasharray="5,2" d="M254.46,-187.99C742.86,35.34 772.92,38.35 1736.85,-68.92"/>
<polygon fill="#7f7f7f" stroke="#7f7f7f" points="1736.47,-72.4 1746.8,-70.03 1737.25,-65.45 1736.47,-72.4"/>
<text text-anchor="middle" x="990.22" y="-13.24" font-family="Helvetica,sans-Serif" font-size="8.00">joint states</text>
<text text-anchor="middle" x="990.22" y="-4.24" font-family="Helvetica,sans-Serif" font-size="8.00">model poses</text>
</g>
</g>
</svg>
